<svg width="25" height="24" viewBox="0 0 25 24" xmlns="http://www.w3.org/2000/svg"><title>asterisk_icon</title><path d="M13.235 7.99h-1.47L8.333.682 9.803 0 12.5 5.746 15.197 0l1.47.681zm1.962 15.983L12.5 18.227l-2.697 5.746-1.47-.681 3.432-7.31h1.47l3.432 7.31zM8.488 10.654L0 9.941l.148-1.629 6.671.56-3.84-5.27 1.393-.938L9.26 9.37zm12.14 10.655l-4.887-6.708.77-1.283 8.489.713-.148 1.63-6.671-.561 3.84 5.271zm-16.256 0l-1.394-.938L6.82 15.1l-6.67.56L0 14.032l8.488-.713.771 1.283zm12.14-10.655l-.771-1.283 4.887-6.707 1.394.937-3.841 5.272 6.67-.56L25 9.94z"/></svg>