<svg width="48" height="48" fill="none" xmlns="http://www.w3.org/2000/svg"><path fill-rule="evenodd" clip-rule="evenodd" d="M26.52 7.772C29.21 4.018 32.952 4 32.952 4s.556 3.529-2.117 6.928c-2.855 3.63-6.099 3.036-6.099 3.036s-.61-2.855 1.784-6.192Z" fill="#1A2E3B"/><mask id="a" style="mask-type:alpha" maskUnits="userSpaceOnUse" x="8" y="14" width="34" height="30"><path fill-rule="evenodd" clip-rule="evenodd" d="M8 14.042h33.283V44H8V14.042Z" fill="#fff"/></mask><g mask="url(#a)"><path fill-rule="evenodd" clip-rule="evenodd" d="M24.927 15.875c1.38 0 3.942-1.833 7.275-1.833 5.739 0 7.996 3.945 7.996 3.945s-4.415 2.18-4.415 7.473c0 5.97 5.5 8.027 5.5 8.027s-3.845 10.455-9.038 10.455c-2.385 0-4.24-1.553-6.753-1.553-2.561 0-5.103 1.611-6.758 1.611C13.99 44 8 34.082 8 26.11c0-7.843 5.071-11.958 9.828-11.958 3.092 0 5.492 1.723 7.1 1.723Z" fill="#1A2E3B"/></g></svg>