<svg width="48" height="48" fill="none" xmlns="http://www.w3.org/2000/svg"><g clip-path="url(#a)"><mask id="b" style="mask-type:alpha" maskUnits="userSpaceOnUse" x="4" y="4" width="40" height="40"><path d="M4.001 4.002H44v39.755H4.001V4.002Z" fill="#fff"/></mask><g mask="url(#b)"><path fill-rule="evenodd" clip-rule="evenodd" d="M44 24c0-11.046-8.954-20-20-20S4 12.954 4 24c0 9.983 7.314 18.257 16.875 19.757V29.781h-5.078V24h5.078v-4.406c0-5.013 2.986-7.782 7.554-7.782 2.189 0 4.477.391 4.477.391v4.922h-2.522c-2.484 0-3.259 1.542-3.259 3.123V24h5.547l-.887 5.781h-4.66v13.976C36.686 42.257 44 33.983 44 24Z" fill="#1877F2"/></g><path fill-rule="evenodd" clip-rule="evenodd" d="M31.785 29.781 32.672 24h-5.547v-3.752c0-1.581.775-3.123 3.26-3.123h2.521v-4.922s-2.288-.39-4.477-.39c-4.568 0-7.554 2.768-7.554 7.78V24h-5.078v5.781h5.078v13.976a20.145 20.145 0 0 0 6.25 0V29.781h4.66Z" fill="#fff"/></g><defs><clipPath id="a"><path fill="#fff" transform="matrix(2 0 0 2 4 4)" d="M0 0h20v20H0z"/></clipPath></defs></svg>