<svg width="24" height="24" fill="none" xmlns="http://www.w3.org/2000/svg"><mask id="a" style="mask-type:alpha" maskUnits="userSpaceOnUse" x="2" y="2" width="20" height="20"><path fill-rule="evenodd" clip-rule="evenodd" d="M20.908 10.14h-9.12v3.843h5.25c-.49 2.441-2.537 3.843-5.25 3.843-3.204 0-5.784-2.623-5.784-5.878 0-3.256 2.58-5.878 5.784-5.878 1.379 0 2.624.497 3.603 1.31l2.848-2.893C16.503 2.95 14.279 2 11.788 2 6.36 2 2 6.431 2 11.948c0 5.516 4.36 9.948 9.788 9.948 4.893 0 9.342-3.618 9.342-9.948a8.38 8.38 0 0 0-.222-1.809Z" fill="#fff"/></mask><g mask="url(#a)"><path d="M1.11 17.826V6.07l7.563 5.878-7.563 5.878Z" fill="#FBBC05"/></g><mask id="b" style="mask-type:alpha" maskUnits="userSpaceOnUse" x="2" y="2" width="20" height="20"><path fill-rule="evenodd" clip-rule="evenodd" d="M20.908 10.14h-9.12v3.843h5.25c-.49 2.441-2.537 3.843-5.25 3.843-3.204 0-5.784-2.623-5.784-5.878 0-3.256 2.58-5.878 5.784-5.878 1.379 0 2.624.497 3.603 1.31l2.848-2.893C16.503 2.95 14.279 2 11.788 2 6.36 2 2 6.431 2 11.948c0 5.516 4.36 9.948 9.788 9.948 4.893 0 9.342-3.618 9.342-9.948a8.38 8.38 0 0 0-.222-1.809Z" fill="#fff"/></mask><g mask="url(#b)"><path d="m1.11 6.07 7.563 5.878 3.115-2.758 10.677-1.764v-6.33H1.11V6.07Z" fill="#EA4335"/></g><mask id="c" style="mask-type:alpha" maskUnits="userSpaceOnUse" x="2" y="2" width="20" height="20"><path fill-rule="evenodd" clip-rule="evenodd" d="M20.908 10.14h-9.12v3.843h5.25c-.49 2.441-2.537 3.843-5.25 3.843-3.204 0-5.784-2.623-5.784-5.878 0-3.256 2.58-5.878 5.784-5.878 1.379 0 2.624.497 3.603 1.31l2.848-2.893C16.503 2.95 14.279 2 11.788 2 6.36 2 2 6.431 2 11.948c0 5.516 4.36 9.948 9.788 9.948 4.893 0 9.342-3.618 9.342-9.948a8.38 8.38 0 0 0-.222-1.809Z" fill="#fff"/></mask><g mask="url(#c)"><path d="m1.11 17.826 13.347-10.4 3.515.452 4.493-6.782V22.8H1.11v-4.974Z" fill="#34A853"/></g><mask id="d" style="mask-type:alpha" maskUnits="userSpaceOnUse" x="2" y="2" width="20" height="20"><path fill-rule="evenodd" clip-rule="evenodd" d="M20.908 10.14h-9.12v3.843h5.25c-.49 2.441-2.537 3.843-5.25 3.843-3.204 0-5.784-2.623-5.784-5.878 0-3.256 2.58-5.878 5.784-5.878 1.379 0 2.624.497 3.603 1.31l2.848-2.893C16.503 2.95 14.279 2 11.788 2 6.36 2 2 6.431 2 11.948c0 5.516 4.36 9.948 9.788 9.948 4.893 0 9.342-3.618 9.342-9.948a8.38 8.38 0 0 0-.222-1.809Z" fill="#fff"/></mask><g mask="url(#d)"><path d="M22.465 22.8 8.673 11.948l-1.78-1.357L22.466 6.07V22.8Z" fill="#4285F4"/></g></svg>